<?xml version="1.0" encoding="UTF-8"?>
<svg version="1.1" xmlns="http://www.w3.org/2000/svg" width="597" height="600">
<path d="M0 0 C1.61430628 -0.00461433 3.22860835 -0.01097081 4.84290171 -0.01890898 C9.25913284 -0.03555247 13.67501664 -0.0273787 18.09124875 -0.0149641 C22.86161183 -0.00589548 27.63191614 -0.01989232 32.40226746 -0.03088379 C41.73958242 -0.04865425 51.07676864 -0.04483558 60.41408861 -0.03323323 C68.00387844 -0.02419339 75.59363223 -0.02297729 83.1834259 -0.02732849 C84.26435002 -0.02794142 85.34527414 -0.02855436 86.45895353 -0.02918586 C88.65494789 -0.03046478 90.85094223 -0.03176164 93.04693657 -0.03307623 C113.63049037 -0.04447771 134.21397287 -0.03137507 154.79751498 -0.00987476 C172.4525701 0.00799582 190.10752002 0.00489159 207.76257324 -0.0135498 C228.27333543 -0.03496412 248.78403515 -0.04337912 269.29480696 -0.03110075 C271.48264534 -0.02982658 273.67048374 -0.02856909 275.85832214 -0.02732849 C277.47293732 -0.02640284 277.47293732 -0.02640284 279.12017098 -0.02545848 C286.69933601 -0.02200727 294.27846136 -0.02782901 301.85762024 -0.0372467 C311.09625751 -0.04847428 320.33475886 -0.04541063 329.57338059 -0.02412373 C334.28553504 -0.01362358 338.99746302 -0.00947387 343.70961571 -0.02272034 C348.02631814 -0.03467147 352.34258494 -0.02803701 356.65924805 -0.00681013 C358.21765883 -0.00235557 359.77610668 -0.0045845 361.33449346 -0.01431328 C377.41899345 -0.10699501 386.75879738 4.47231283 398.27087402 15.44543457 C407.46138013 24.94655421 410.47810651 34.85735265 410.4407959 47.89587402 C410.44926544 48.99957336 410.45773499 50.10327271 410.46646118 51.24041748 C410.48974615 54.86746942 410.49085525 58.49409497 410.48962402 62.12121582 C410.49673111 64.65793525 410.5044309 67.19465309 410.51269531 69.73136902 C410.52612098 75.04130144 410.5279002 80.3510783 410.52185059 85.66101074 C410.51521728 91.77044268 410.53805859 97.87926974 410.57516432 103.98857909 C410.60973793 109.89871942 410.61618405 115.8086758 410.61207581 121.71892357 C410.61376186 124.21821073 410.62335441 126.71750624 410.64122009 129.21673012 C410.66352146 132.72223583 410.65364929 136.22630789 410.6361084 139.73181152 C410.65600327 141.25888985 410.65600327 141.25888985 410.67630005 142.81681824 C410.52804336 155.66160231 404.69331125 165.64911641 395.92321777 174.66418457 C386.03184864 184.01475575 375.27034348 187.67865856 361.90424919 188.12541866 C360.45498084 188.18186646 360.45498084 188.18186646 358.97643434 188.23945462 C348.94668635 188.60074621 338.92187854 188.64463359 328.88687134 188.62818909 C326.85910621 188.62862656 324.83134113 188.6295047 322.80357635 188.63077825 C317.30070822 188.63298861 311.79785996 188.62905003 306.29499435 188.62400019 C300.33486182 188.61964553 294.37473024 188.62114565 288.41459656 188.62190247 C277.4426893 188.62245842 266.47078918 188.61859618 255.49888372 188.61256158 C245.37290138 188.60704004 235.24692115 188.6038276 225.12093735 188.60281181 C224.11047943 188.6027087 224.11047943 188.6027087 223.07960823 188.60260351 C219.65790345 188.60226513 216.23619866 188.60196377 212.81449388 188.60167664 C188.64044699 188.59958171 164.46640342 188.59285974 140.2923584 188.58337402 C116.82198097 188.57417512 93.35160446 188.56709861 69.88122559 188.56286621 C69.15651393 188.56273468 68.43180228 188.56260316 67.68512967 188.56246765 C60.40662555 188.56114902 53.12812142 188.55987322 45.84961728 188.55862879 C31.02526361 188.55609324 16.20090999 188.55327199 1.3765564 188.55027771 C0.35437731 188.55007178 0.35437731 188.55007178 -0.68845187 188.54986168 C-46.11867802 188.54067628 -91.54890202 188.52460304 -136.97912598 188.50793457 C-136.97912598 216.88793457 -136.97912598 245.26793457 -136.97912598 274.50793457 C-130.17287598 274.34293457 -123.36662598 274.17793457 -116.35412598 274.00793457 C-95.22556152 273.52290969 -74.11233158 273.38635036 -52.97912598 273.50793457 C-52.98436279 272.71137451 -52.98959961 271.91481445 -52.99499512 271.09411621 C-53.11256639 250.20958887 -52.73893716 229.3784927 -51.97912598 208.50793457 C-50.0991525 208.46190136 -48.21884464 208.42942978 -46.33850098 208.40246582 C-45.29145996 208.38288818 -44.24441895 208.36331055 -43.16564941 208.34313965 C-31.60436887 208.94104529 -20.81616038 216.41074965 -12.97912598 224.50793457 C-3.08297968 236.95792507 -0.81705835 249.93620933 -0.93225098 265.45324707 C-0.93563477 266.32731201 -0.93901855 267.20137695 -0.94250488 268.10192871 C-0.95126231 270.23728093 -0.96471075 272.37261305 -0.97912598 274.50793457 C0.21762945 274.50516919 1.41438488 274.50240381 2.64740562 274.49955463 C31.07854238 274.43453145 59.50967721 274.38508819 87.94087198 274.35473858 C91.44296263 274.35098662 94.94505313 274.34710364 98.44714355 274.34313965 C99.14432431 274.34235272 99.84150506 274.34156579 100.5598125 274.34075501 C111.83716995 274.32771368 123.11448136 274.30406688 134.39181153 274.27647618 C145.96996499 274.24838649 157.54809164 274.23197523 169.12627757 274.22566909 C175.6268068 274.22176034 182.12723172 274.21258231 188.62772751 274.1907444 C194.74914359 274.17034704 200.8704126 274.16410742 206.99185944 274.16861153 C209.23557205 274.16778779 211.4792897 274.16184165 213.72297287 274.15031815 C216.79375549 274.13532338 219.86398774 274.13900659 222.93478394 274.14717102 C223.81613742 274.1384325 224.69749091 274.12969397 225.60555208 274.12069064 C238.48911874 274.21285005 250.05504229 279.39691911 259.33337402 288.25793457 C269.3886251 298.91969286 273.49216301 310.00617615 273.42492676 324.55041504 C273.43522163 326.13303131 273.43522163 326.13303131 273.44572449 327.74761963 C273.46390273 331.20692722 273.46016744 334.66577735 273.45446777 338.12512207 C273.45903406 340.54831081 273.46434096 342.97149825 273.47035217 345.39468384 C273.47926585 350.46324945 273.47688013 355.53165736 273.46691895 360.60021973 C273.45543545 367.07162663 273.47564094 373.54248736 273.50483608 380.01382256 C273.52324831 385.01550716 273.52289551 390.01706211 273.51719856 395.01877213 C273.51704594 397.4036142 273.52304072 399.7884654 273.53549004 402.17327499 C273.62063793 421.15785448 272.31739513 434.8604916 258.77087402 449.19543457 C244.56983304 462.80278655 229.35042289 462.94337751 210.72790527 462.80090332 C208.56886593 462.79529993 206.40982274 462.79103335 204.2507782 462.78804016 C198.60042574 462.77664988 192.95030893 462.74723329 187.30004883 462.71392822 C181.5214761 462.6831013 175.74286486 462.66950796 169.9642334 462.65441895 C158.64967741 462.62235759 147.3352954 462.57123237 136.02087402 462.50793457 C136.02531525 463.67589569 136.02975647 464.84385681 136.03433228 466.04721069 C136.07496423 477.08119241 136.10489958 488.11515884 136.12449837 499.14919853 C136.13491316 504.82121791 136.14903019 510.49317665 136.17175293 516.16516113 C136.19356357 521.64407061 136.20545997 527.12292193 136.21062851 532.60187149 C136.21430953 534.68693074 136.2214975 536.77198699 136.23233414 538.85702133 C136.24695836 541.78874211 136.24884741 544.72022586 136.2479248 547.65197754 C136.25511536 548.50434494 136.26230591 549.35671234 136.26971436 550.23490906 C136.21706284 565.80616211 130.98621633 576.56153068 120.02087402 587.50793457 C111.6793276 595.69143064 102.16824308 599.61874978 90.42712402 600.12512207 C89.6357605 600.16265594 88.84439697 600.20018982 88.02905273 600.23886108 C74.22865659 600.79467982 60.39688851 600.65703753 46.58776855 600.63830566 C42.36897586 600.63260885 38.15024617 600.63600149 33.93145561 600.64173222 C4.21577892 600.67633922 4.21577892 600.67633922 -7.44006348 600.10559082 C-8.5071051 600.05611801 -8.5071051 600.05611801 -9.59570312 600.00564575 C-22.24938656 599.23526463 -32.5399883 592.70138361 -41.12756348 583.70324707 C-48.95105929 574.4272879 -52.4697029 564.15754017 -52.33988953 552.10519409 C-52.3424528 551.21460253 -52.34501608 550.32401098 -52.34765702 549.40643179 C-52.35255872 546.4522829 -52.33616217 543.49865667 -52.31970215 540.54455566 C-52.31885509 538.41502901 -52.31933255 536.28550149 -52.32102966 534.15597534 C-52.32188797 528.39634318 -52.30428867 522.63689967 -52.28330779 516.87731123 C-52.26451369 510.85019362 -52.26278839 504.82307135 -52.25923157 498.79592896 C-52.24991914 487.39227895 -52.22531617 475.98871555 -52.1951831 464.58510363 C-52.16161414 451.5984321 -52.14514679 438.61175636 -52.13009679 425.62505221 C-52.09876595 398.91929838 -52.04602102 372.21362133 -51.97912598 345.50793457 C-50.54940397 345.48989458 -49.11961553 345.47707495 -47.68981934 345.46643066 C-46.89361679 345.4587265 -46.09741425 345.45102234 -45.27708435 345.44308472 C-32.78248124 345.7956904 -21.33426386 353.31841634 -13.01818848 362.08996582 C-4.59658876 372.07649882 -1.58766125 382.6844404 -1.29772949 395.56628418 C-1.2479928 397.1739876 -1.2479928 397.1739876 -1.19725132 398.81416988 C-0.81736919 412.64347052 -0.85088503 426.4795901 -0.87773204 440.31285596 C-0.88410661 444.16978595 -0.88458026 448.02671728 -0.88575745 451.88365173 C-0.88883013 459.1430999 -0.896987 466.4025325 -0.90710694 473.66197389 C-0.92051931 483.50289695 -0.9258009 493.34382445 -0.93160915 503.18475437 C-0.94093104 518.62582604 -0.96087652 534.06686488 -0.97912598 549.50793457 C27.40087402 549.50793457 55.78087402 549.50793457 85.02087402 549.50793457 C85.02087402 503.96793457 85.02087402 458.42793457 85.02087402 411.50793457 C130.23087402 411.50793457 175.44087402 411.50793457 222.02087402 411.50793457 C222.02087402 383.12793457 222.02087402 354.74793457 222.02087402 325.50793457 C206.13785156 325.51578979 206.13785156 325.51578979 189.93395996 325.52380371 C155.99992065 325.53987577 122.06588133 325.55098649 88.1318392 325.5589999 C82.85510471 325.56025051 77.57837022 325.56154484 72.30163574 325.56286621 C71.25119494 325.56312852 70.20075413 325.56339083 69.11848179 325.56366109 C52.14119302 325.56800468 35.16390767 325.57588499 18.18662092 325.58508737 C0.74817319 325.59446042 -16.69027276 325.5999979 -34.12872291 325.60202307 C-44.87698189 325.60339072 -55.62523124 325.60770012 -66.37348726 325.61585104 C-73.75800414 325.62116359 -81.14251608 325.62272867 -88.52703473 325.62143595 C-92.77852843 325.62079958 -97.03000537 325.62172978 -101.28149605 325.62714005 C-130.59842836 325.6623974 -130.59842836 325.6623974 -142.76739502 325.09849548 C-143.53838382 325.06441308 -144.30937262 325.03033068 -145.10372472 324.99521548 C-157.26313691 324.30971619 -166.8956761 318.85047516 -175.27209473 310.11730957 C-181.24259128 302.99303976 -187.07755897 294.37880796 -187.126297 284.81738281 C-187.1334523 283.85311371 -187.1406076 282.8888446 -187.14797974 281.89535522 C-187.15066864 280.83873688 -187.15335754 279.78211853 -187.15612793 278.69348145 C-187.16269913 277.5792984 -187.16927032 276.46511536 -187.17604065 275.31716919 C-187.19579094 271.62034031 -187.20744238 267.92355217 -187.21740723 264.22668457 C-187.22148275 262.96338821 -187.22555828 261.70009186 -187.22975731 260.39851379 C-187.2484762 254.39759385 -187.26303717 248.39669855 -187.27136928 242.3957572 C-187.28111829 235.48959011 -187.30737521 228.58374553 -187.34787017 221.67769194 C-187.3818134 215.68107121 -187.39352639 209.68460542 -187.39757347 203.68788147 C-187.40243305 201.14589761 -187.41402894 198.60391704 -187.43261147 196.06199646 C-187.45706893 192.49358823 -187.45602485 188.92601107 -187.44909668 185.35754395 C-187.46190674 184.31711945 -187.4747168 183.27669495 -187.48791504 182.20474243 C-187.39322209 168.74735728 -181.99694492 159.71542429 -172.81115723 150.28137207 C-167.73766425 145.48624774 -162.43310887 142.15519623 -155.97912598 139.50793457 C-155.18917236 139.16568848 -154.39921875 138.82344238 -153.58532715 138.4708252 C-148.3410963 137.07056479 -143.2300871 137.14872648 -137.82287598 137.09387207 C-136.62302567 137.0744606 -135.42317535 137.05504913 -134.18696594 137.03504944 C-130.28442503 136.97474077 -126.38186498 136.92846399 -122.47912598 136.88293457 C-120.47599791 136.85531805 -118.47289421 136.82626433 -116.46978855 136.79707241 C-95.30671308 136.49030382 -74.14408814 136.37632426 -52.97912598 136.50793457 C-52.98436279 135.68148437 -52.98959961 134.85503418 -52.99499512 134.00354004 C-53.04618753 124.37288564 -53.0363401 114.74313075 -53.00012207 105.11242676 C-52.98258384 100.35783865 -52.97773502 95.60337426 -52.97766113 90.84875488 C-52.97631751 84.6500816 -52.9481952 78.45194951 -52.89724064 72.25348473 C-52.86951619 68.80197184 -52.8518531 65.35110625 -52.85928345 61.8994751 C-52.88948977 43.12954604 -52.86865949 28.57733667 -39.23132324 14.52941895 C-27.69838101 2.96745572 -15.93286755 -0.09946661 0 0 Z M-0.97912598 50.50793457 C-0.97912598 79.21793457 -0.97912598 107.92793457 -0.97912598 137.50793457 C39.39494402 137.53006164 79.7690082 137.54849408 120.14308254 137.5589999 C124.93095966 137.56025031 129.71883677 137.56154466 134.50671387 137.56286621 C135.45972403 137.56312852 136.41273419 137.56339083 137.39462344 137.56366109 C152.73988737 137.56798908 168.08514747 137.57586052 183.43040915 137.58508737 C199.22590575 137.59450433 215.02140037 137.60000703 230.81689966 137.60202307 C239.66795162 137.60326115 248.51899561 137.60621462 257.37004471 137.61366463 C308.2049253 137.73583724 308.2049253 137.73583724 359.02087402 136.50793457 C359.9866908 107.82112145 360.02087402 79.23040136 360.02087402 50.50793457 C240.89087402 50.50793457 121.76087402 50.50793457 -0.97912598 50.50793457 Z " fill="#8200ff" transform="translate(186.9791259765625,-0.5079345703125)"/>
</svg>
